<svg width="15" height="19" viewBox="0 0 15 19" fill="none" xmlns="http://www.w3.org/2000/svg">
<path d="M6.73261 11.2124L0.21417 17.7463C-0.0712273 18.033 -0.0712273 18.4975 0.21417 18.785C0.499568 19.0717 0.963128 19.0717 1.24853 18.785L7.24976 12.7693L13.251 18.7842C13.5364 19.071 14 19.071 14.2861 18.7842C14.5715 18.4975 14.5715 18.0323 14.2861 17.7456L7.76763 11.2117C7.48518 10.9293 7.01434 10.9293 6.73261 11.2124Z" fill="#6C6C6C"/>
<path d="M7.76751 7.7876L14.286 1.25367C14.5713 0.966964 14.5713 0.502457 14.286 0.215028C14.0006 -0.0716761 13.537 -0.0716761 13.2516 0.215028L7.25036 6.23069L1.24913 0.215752C0.96373 -0.0709527 0.500169 -0.0709527 0.214049 0.215752C-0.0713482 0.502456 -0.0713482 0.967687 0.214049 1.25439L6.73249 7.78832C7.01494 8.07068 7.48578 8.07068 7.76751 7.7876Z" fill="#6C6C6C"/>
</svg>
