<svg fill="none" viewBox="0 0 473 573">
  <path fill="url(#logo_gradient)" d="M.897003 46.757C61.664 47.008 122.397 48.551 183.161 47.977c44.732-.43 89.033 21.057 116.188 56.605 22.743 28.626 33.145 65.932 30.993 102.234 1.973 63.887-43.046 125.73-104.817 142.805-18.366 5.668-37.665 5.847-56.713 6.493-12.376.072-23.388 9.972-24.321 22.348-1.9 28.841 0 57.825-.933 86.7-3.264 43.189-32.858 82.863-73.106 98.755-22.1 9.649-46.561 9.04-70.164997 8.681C.0720026 542.286.61 512.011 0 481.735c15.353-1.829 34.15 2.439 45.736-10.582 9.685-10.367 5.6-25.361 6.851-38.06 2.547-28.948-3.408-59.116 7.174-86.953 4.6651-12.902 11.3221-24.994 19.729-35.836-14.349-19.658-24.07-43.046-25.11-67.546-.717-26.258-.789-52.516-2.475-78.738-.359-12.089-10.51-23.173-22.6-24.285-9.649-1.184-19.371-.933-29.019996-1.327.359-30.563-.861-61.161.61-91.652l.001999.001zM143.915 145.69c1.22 28.7 2.654 57.466.717 86.164-1.614 16.931 10.51 33.217 27.011 37.02 32.105 8.789 66.4-15.927 72.748-47.638 7.892-32.356-16-67.582-48.427-73.716-15.653-2.745-31.6-1.62-48.526-1.762-.435-.001-1.979-.025-3.521-.067l-.002-.001z"/>
  <path fill="#EEF2F5" d="M372.185 0c26.654 0 52.217 10.5884 71.064 29.4358 18.848 18.8474 29.436 44.4099 29.436 71.0642 0 26.654-10.588 52.217-29.436 71.064C424.402 190.412 398.839 201 372.185 201h-61.693c-10.292 0-20.163-4.089-27.441-11.366-7.277-7.278-11.366-17.149-11.366-27.441V100.5c0-26.6543 10.588-52.2168 29.436-71.0642C319.968 10.5884 345.531 0 372.185 0z"/>
  <path fill="#141414" d="M355.551 111.975h-49.614c-5.078 0-9.195 4.117-9.195 9.195v.001c0 5.078 4.117 9.195 9.195 9.195h49.614c5.078 0 9.195-4.117 9.195-9.195v-.001c0-5.078-4.117-9.195-9.195-9.195zM382.509 145.253h-76.572c-5.078 0-9.195 4.117-9.195 9.195v.001c0 5.078 4.117 9.195 9.195 9.195h76.572c5.078 0 9.195-4.117 9.195-9.195v-.001c0-5.078-4.117-9.195-9.195-9.195z"/>
  <defs>
    <linearGradient id="logo_gradient" x1="250.278" x2="-161.466" y1="79.3682" y2="376.499" gradientUnits="userSpaceOnUse">
      <stop stop-color="#9423FC"/>
      <stop offset=".51" stop-color="#FF70A5"/>
      <stop offset="1" stop-color="#FEAF6D"/>
    </linearGradient>
  </defs>
</svg>