<svg fill="none" viewBox="0 0 316 230">
  <mask id="banner_mask" width="317" height="230" x="0" y="0" maskUnits="userSpaceOnUse">
    <path fill="#C4C4C4" d="M316 0H0v167s17-16 57 31 91 35 142 7 117 0 117 0V0z"/>
  </mask>
  <g mask="url(#banner_mask)">
    <path fill="#121240" d="M371.3-80.19H0v285.31h371.3V-80.19z"/>
    <path fill="url(#banner_gradient1)" d="M-79.48 114.68s52.26-34.66 99.9-24.05c47.66 10.61 56.88 66.5 95.3 77.1 38.43 10.62 95.3-30.4 130.65-37.48 35.36-7.08 52.26-3.54 95.3 19.1 43.04 22.63 15.37 90.54 15.37 90.54s-154.47 21.93-172.15 20.52c-17.67-1.42-180.6-20.52-180.6-20.52l-93.76-23.34 10-101.87z" opacity=".64"/>
    <path fill="url(#banner_gradient2)" d="M-79.48 121.34s52.26-34.66 99.9-24.05c47.66 10.6 56.88 66.5 95.3 77.1 38.43 10.62 95.3-30.41 130.65-37.49 35.36-7.07 52.26-3.53 95.3 19.1 43.04 22.64 15.37 90.55 15.37 90.55s-154.47 21.93-172.15 20.51c-17.67-1.41-180.6-20.51-180.6-20.51l-93.76-23.35 10-101.86z" opacity=".18"/>
    <path fill="url(#banner_gradient3)" d="M-117.01 102.32s52.26-34.66 99.9-24.05c47.66 10.61 56.88 66.5 95.3 77.1 38.43 10.62 95.3-30.41 130.65-37.48 35.35-7.08 52.26-3.54 95.3 19.1 43.04 22.63 15.37 90.54 15.37 90.54s-154.47 21.93-172.15 20.52c-17.68-1.42-180.6-20.52-180.6-20.52L-127 204.2l9.99-101.87z" opacity=".18"/>
    <path fill="url(#banner_gradient4)" d="M-76.72 131.8s52.25-34.66 99.9-24.05c47.65 10.6 56.87 66.5 95.3 77.1 38.43 10.61 95.3-30.41 130.65-37.49 35.35-7.07 52.26-3.54 95.3 19.1 43.03 22.64 15.36 90.55 15.36 90.55s-154.47 21.93-172.14 20.51c-17.68-1.41-180.6-20.51-180.6-20.51l-93.76-23.35 9.99-101.86z" opacity=".91"/>
    <path fill="url(#banner_gradient5)" d="M-106.34 135.6s52.26-34.66 99.91-24.05c47.65 10.61 56.87 66.5 95.3 77.1 38.42 10.62 95.3-30.41 130.65-37.49 35.35-7.07 52.25-3.53 95.3 19.1 43.03 22.64 15.36 90.55 15.36 90.55s-154.47 21.93-172.15 20.51c-17.67-1.41-180.6-20.51-180.6-20.51l-93.76-23.34 10-101.87z"/>
    <path fill="url(#banner_gradient6)" d="M461.44 131.96s-67.65 23.62-116-.66c-48.35-24.27-40.7-87.37-79.03-109.18-38.34-21.8-113.01 7.5-153.6 5.7-40.6-1.8-57.83-10.16-97.37-46.24-39.54-36.09 11.94-102.36 11.94-102.36s174.54 17.57 193.27 23.84c18.73 6.26 189.47 70.62 189.47 70.62l94.36 50.43-43.04 107.85z"/>
    <path fill="url(#banner_gradient7)" d="M461.44 125.94s-67.65 23.62-116-.66c-48.35-24.27-40.7-87.37-79.03-109.18-38.34-21.8-113.01 7.49-153.6 5.7C72.2 20 54.97 11.64 15.43-24.44-24.1-60.53 27.38-126.8 27.38-126.8s174.54 17.57 193.27 23.83c18.73 6.27 189.47 70.62 189.47 70.62l94.36 50.44-43.04 107.85z"/>
    <path fill="url(#banner_gradient8)" d="M461.44 128.8s-67.65 23.6-116-.67c-48.35-24.27-40.7-87.37-79.03-109.17-38.34-21.8-113.01 7.48-153.6 5.7-40.6-1.8-57.83-10.17-97.37-46.25-39.54-36.09 11.94-102.36 11.94-102.36s174.54 17.57 193.27 23.84c18.73 6.27 189.47 70.62 189.47 70.62l94.36 50.43-43.04 107.85z" opacity=".68"/>
    <path fill="url(#banner_gradient9)" d="M324.87 58.31s-31.55 11.02-54.1-.3c-22.55-11.33-18.98-40.76-36.86-50.93-17.88-10.17-52.71 3.5-71.65 2.66-18.93-.84-26.97-4.74-45.4-21.57-18.45-16.83 5.56-47.74 5.56-47.74s81.4 8.2 90.14 11.12c8.74 2.92 88.38 32.93 88.38 32.93l44 23.53-20.07 50.3z" opacity=".39"/>
    <g fill="#EEF2F5" opacity=".5">
      <path d="M104.65 34.44c4.19 0 7.58-3.12 7.58-6.97 0-3.85-3.4-6.97-7.58-6.97s-7.57 3.12-7.57 6.97c0 3.85 3.39 6.97 7.57 6.97zM29.35 113.66c8.18 0 14.81-6.1 14.81-13.63 0-7.53-6.63-13.63-14.8-13.63-8.18 0-14.81 6.1-14.81 13.63 0 7.53 6.63 13.63 14.8 13.63zM293.69 74.7c5.7 0 10.33-4.26 10.33-9.51s-4.63-9.51-10.33-9.51-10.33 4.26-10.33 9.5c0 5.26 4.62 9.51 10.33 9.51zM213.12 143.79c5.7 0 10.32-4.26 10.32-9.51s-4.62-9.5-10.32-9.5c-5.71 0-10.33 4.25-10.33 9.5s4.62 9.5 10.33 9.5zM24.08 62.65c1.52 0 2.75-1.13 2.75-2.53s-1.23-2.54-2.75-2.54-2.76 1.14-2.76 2.54c0 1.4 1.24 2.53 2.76 2.53zM236.53 36.98c1.52 0 2.75-1.14 2.75-2.54 0-1.4-1.23-2.53-2.75-2.53s-2.75 1.13-2.75 2.53 1.23 2.54 2.75 2.54zM287.83 110.5c1.53 0 2.76-1.13 2.76-2.53s-1.23-2.53-2.76-2.53c-1.52 0-2.75 1.13-2.75 2.53s1.23 2.54 2.75 2.54zM293.51 137.85c2.15-1.14 2.88-3.66 1.64-5.63a4.7 4.7 0 0 0-6.11-1.5c-2.14 1.13-2.88 3.65-1.64 5.62a4.7 4.7 0 0 0 6.12 1.5zM180.58 66.85c2.14-1.13 2.87-3.65 1.63-5.63a4.7 4.7 0 0 0-6.11-1.5c-2.14 1.13-2.88 3.65-1.64 5.62a4.7 4.7 0 0 0 6.12 1.51zM106.03 113.68c1.71 0 3.1-1.28 3.1-2.86 0-1.57-1.39-2.85-3.1-2.85-1.71 0-3.1 1.28-3.1 2.86 0 1.57 1.39 2.85 3.1 2.85z"/>
    </g>
    <path fill="#fff" d="M29.84 33.96h-6.72V30h18.3v3.96H34.7V51h-4.86V33.96zm23.67.66c2 0 3.61.6 4.83 1.8 1.24 1.2 1.86 2.98 1.86 5.34V51h-4.68v-8.52c0-1.28-.28-2.23-.84-2.85-.56-.64-1.37-.96-2.43-.96a3.7 3.7 0 0 0-2.82 1.11c-.7.72-1.05 1.8-1.05 3.24V51H43.7V28.74h4.68v7.8a6.06 6.06 0 0 1 2.25-1.41 7.93 7.93 0 0 1 2.88-.51zm26.92 8.37l-.09 1.26h-12.2a3.8 3.8 0 0 0 1.55 2.37c.82.58 1.84.87 3.06.87a6.3 6.3 0 0 0 2.22-.36 5.57 5.57 0 0 0 1.83-1.2l2.5 2.7c-1.53 1.74-3.75 2.61-6.67 2.61-1.82 0-3.43-.35-4.83-1.05a7.9 7.9 0 0 1-4.38-7.26c0-1.58.37-3 1.11-4.26a7.88 7.88 0 0 1 3.1-2.97 9.06 9.06 0 0 1 4.4-1.08 9 9 0 0 1 4.3 1.02 7.32 7.32 0 0 1 3 2.94 8.55 8.55 0 0 1 1.1 4.41zm-8.37-4.83c-1.06 0-1.95.3-2.67.9a3.83 3.83 0 0 0-1.32 2.46h7.95a3.9 3.9 0 0 0-3.96-3.36zM34.58 67c1.86 0 3.47.31 4.83.93a7.19 7.19 0 0 1 3.18 2.64 7.27 7.27 0 0 1 1.11 4.05c0 1.54-.37 2.89-1.11 4.05a7.19 7.19 0 0 1-3.18 2.64c-1.36.6-2.97.9-4.83.9h-4.23V88h-4.86V67h9.09zm-.27 11.25c1.46 0 2.57-.31 3.33-.93a3.34 3.34 0 0 0 1.14-2.7c0-1.18-.38-2.08-1.14-2.7-.76-.64-1.87-.96-3.33-.96h-3.96v7.29h3.96zm17-4.26a5.22 5.22 0 0 1 2.25-1.77c.96-.4 2.06-.6 3.3-.6v4.32c-.52-.04-.87-.06-1.05-.06-1.34 0-2.39.38-3.15 1.14-.76.74-1.14 1.86-1.14 3.36V88h-4.68V71.86h4.47v2.13zm15.87 14.25c-1.7 0-3.23-.35-4.6-1.05a8.05 8.05 0 0 1-4.28-7.26 7.84 7.84 0 0 1 4.29-7.23 9.66 9.66 0 0 1 4.59-1.08c1.7 0 3.22.36 4.56 1.08a7.84 7.84 0 0 1 4.29 7.23 8.05 8.05 0 0 1-4.29 7.26 9.7 9.7 0 0 1-4.56 1.05zm0-3.84c1.2 0 2.18-.4 2.94-1.2a4.55 4.55 0 0 0 1.17-3.27c0-1.36-.4-2.44-1.17-3.24a3.83 3.83 0 0 0-2.94-1.23c-1.2 0-2.2.41-2.97 1.23a4.44 4.44 0 0 0-1.17 3.24c0 1.36.39 2.45 1.17 3.27.78.8 1.77 1.2 2.97 1.2zM95.8 71.86V85.3c0 2.96-.77 5.16-2.3 6.6-1.55 1.44-3.8 2.16-6.76 2.16-1.56 0-3.04-.19-4.44-.57a9.7 9.7 0 0 1-3.48-1.65l1.86-3.36c.68.56 1.54 1 2.58 1.32 1.04.34 2.08.51 3.12.51 1.62 0 2.81-.37 3.57-1.11.78-.72 1.17-1.82 1.17-3.3v-.69c-1.22 1.34-2.92 2.01-5.1 2.01a8.76 8.76 0 0 1-4.08-.96 7.57 7.57 0 0 1-3.99-6.84c0-1.54.36-2.9 1.08-4.08a7.35 7.35 0 0 1 2.91-2.73 8.55 8.55 0 0 1 4.08-.99c2.34 0 4.12.77 5.34 2.31v-2.07h4.44zm-8.85 11.52a4.3 4.3 0 0 0 3.03-1.08c.8-.74 1.2-1.7 1.2-2.88s-.4-2.13-1.2-2.85a4.22 4.22 0 0 0-3.03-1.11c-1.24 0-2.26.37-3.06 1.11-.8.72-1.2 1.67-1.2 2.85 0 1.18.4 2.14 1.2 2.88a4.4 4.4 0 0 0 3.06 1.08zm17.68-9.39a5.22 5.22 0 0 1 2.25-1.77c.96-.4 2.06-.6 3.3-.6v4.32c-.52-.04-.87-.06-1.05-.06-1.34 0-2.39.38-3.15 1.14-.76.74-1.14 1.86-1.14 3.36V88h-4.68V71.86h4.47v2.13zm14.76-2.37c2.5 0 4.42.6 5.75 1.8 1.34 1.18 2.02 2.97 2.02 5.37V88h-4.38v-2.01c-.89 1.5-2.53 2.25-4.92 2.25a7.74 7.74 0 0 1-3.25-.63 4.53 4.53 0 0 1-2.79-4.26c0-1.5.57-2.68 1.69-3.54 1.13-.86 2.88-1.29 5.24-1.29h3.72c0-1.02-.3-1.8-.92-2.34-.63-.56-1.55-.84-2.8-.84a8.02 8.02 0 0 0-4.64 1.5l-1.69-3.27c.89-.62 1.94-1.1 3.16-1.44 1.23-.34 2.5-.51 3.8-.51zm-.36 13.47c.8 0 1.5-.18 2.13-.54a3.1 3.1 0 0 0 1.31-1.65v-1.65h-3.2c-1.92 0-2.88.63-2.88 1.89 0 .6.22 1.08.69 1.44.48.34 1.13.51 1.95.51zm33.03-13.47c2.02 0 3.62.6 4.8 1.8 1.2 1.18 1.8 2.96 1.8 5.34V88h-4.68v-8.52c0-1.28-.27-2.23-.81-2.85-.52-.64-1.27-.96-2.25-.96-1.1 0-1.97.36-2.61 1.08-.64.7-.96 1.75-.96 3.15V88h-4.68v-8.52c0-2.54-1.02-3.81-3.06-3.81-1.08 0-1.94.36-2.58 1.08-.64.7-.96 1.75-.96 3.15V88h-4.68V71.86h4.47v1.86c.6-.68 1.33-1.2 2.19-1.56a7.53 7.53 0 0 1 5.97.15 5.37 5.37 0 0 1 2.22 1.95 6.65 6.65 0 0 1 2.49-1.95 8 8 0 0 1 3.33-.69zm31.47 0c2.01 0 3.62.6 4.8 1.8 1.2 1.18 1.8 2.96 1.8 5.34V88h-4.69v-8.52c0-1.28-.26-2.23-.8-2.85-.52-.64-1.27-.96-2.25-.96-1.1 0-1.97.36-2.61 1.08-.65.7-.97 1.75-.97 3.15V88h-4.68v-8.52c0-2.54-1.01-3.81-3.06-3.81-1.07 0-1.94.36-2.57 1.08-.65.7-.97 1.75-.97 3.15V88h-4.68V71.86h4.47v1.86c.6-.68 1.34-1.2 2.2-1.56a7.53 7.53 0 0 1 5.97.15 5.37 5.37 0 0 1 2.22 1.95 6.65 6.65 0 0 1 2.48-1.95 8 8 0 0 1 3.34-.69zm26.78 8.37l-.1 1.26h-12.2a3.8 3.8 0 0 0 1.56 2.37c.82.58 1.84.87 3.06.87a6.3 6.3 0 0 0 2.22-.36 5.57 5.57 0 0 0 1.83-1.2l2.49 2.7c-1.52 1.74-3.74 2.61-6.66 2.61-1.82 0-3.43-.35-4.83-1.05a7.9 7.9 0 0 1-4.38-7.26c0-1.58.37-3 1.1-4.26a7.88 7.88 0 0 1 3.1-2.97 9.06 9.06 0 0 1 4.4-1.08 9 9 0 0 1 4.3 1.02 7.32 7.32 0 0 1 3 2.94 8.55 8.55 0 0 1 1.1 4.41zm-8.37-4.83c-1.06 0-1.95.3-2.67.9a3.83 3.83 0 0 0-1.32 2.46h7.95a3.9 3.9 0 0 0-3.96-3.36zm15.95-1.17a5.22 5.22 0 0 1 2.25-1.77c.96-.4 2.06-.6 3.3-.6v4.32c-.52-.04-.87-.06-1.05-.06-1.34 0-2.39.38-3.15 1.14-.76.74-1.14 1.86-1.14 3.36V88h-4.68V71.86h4.47v2.13zm11.34-8.49c.84 0 1.53.27 2.07.81.54.52.8 1.21.8 2.07 0 .4-.04.8-.14 1.2-.1.4-.31 1-.63 1.8l-1.74 4.32h-2.97l1.29-4.74c-.5-.22-.9-.55-1.17-.99a2.9 2.9 0 0 1-.42-1.59c0-.86.27-1.55.8-2.07a2.9 2.9 0 0 1 2.1-.81zm10.95 22.74c-1.34 0-2.65-.16-3.93-.48-1.28-.34-2.3-.76-3.06-1.26l1.56-3.36c.72.46 1.59.84 2.61 1.14 1.02.28 2.02.42 3 .42 1.98 0 2.97-.49 2.97-1.47 0-.46-.27-.79-.81-.99a12 12 0 0 0-2.49-.51c-1.32-.2-2.41-.43-3.27-.69a5.18 5.18 0 0 1-2.25-1.38c-.62-.66-.93-1.6-.93-2.82 0-1.02.29-1.92.87-2.7.6-.8 1.46-1.42 2.58-1.86 1.14-.44 2.48-.66 4.02-.66 1.14 0 2.27.13 3.39.39 1.14.24 2.08.58 2.82 1.02l-1.56 3.33a9.31 9.31 0 0 0-4.65-1.2c-1 0-1.75.14-2.25.42-.5.28-.75.64-.75 1.08 0 .5.27.85.81 1.05.54.2 1.4.39 2.58.57 1.32.22 2.4.46 3.24.72.84.24 1.57.69 2.19 1.35.62.66.93 1.58.93 2.76 0 1-.3 1.89-.9 2.67a5.84 5.84 0 0 1-2.64 1.83c-1.14.42-2.5.63-4.08.63zM44.75 104v21h-4.86v-8.61h-9.54V125h-4.86v-21h4.86v8.28h9.54V104h4.86zm11.15 4.62c2.5 0 4.42.6 5.76 1.8 1.34 1.18 2 2.97 2 5.37V125H59.3v-2.01c-.88 1.5-2.52 2.25-4.92 2.25a7.74 7.74 0 0 1-3.24-.63 4.53 4.53 0 0 1-2.79-4.26c0-1.5.56-2.68 1.68-3.54 1.14-.86 2.89-1.29 5.25-1.29h3.72c0-1.02-.31-1.8-.93-2.34-.62-.56-1.55-.84-2.8-.84a8.02 8.02 0 0 0-4.64 1.5l-1.68-3.27c.88-.62 1.93-1.1 3.15-1.44 1.24-.34 2.5-.51 3.8-.51zm-.36 13.47c.8 0 1.5-.18 2.13-.54a3.1 3.1 0 0 0 1.32-1.65v-1.65h-3.21c-1.92 0-2.88.63-2.88 1.89 0 .6.23 1.08.69 1.44.48.34 1.13.51 1.95.51zm22.17-13.47c2 0 3.61.6 4.83 1.8 1.24 1.2 1.86 2.98 1.86 5.34V125h-4.68v-8.52c0-1.28-.28-2.23-.84-2.85-.56-.64-1.37-.96-2.43-.96a3.7 3.7 0 0 0-2.82 1.11c-.7.72-1.05 1.8-1.05 3.24V125H67.9v-16.14h4.47v1.89a6.06 6.06 0 0 1 2.31-1.56 7.86 7.86 0 0 1 3.03-.57zm27.76.24v13.44c0 2.96-.77 5.16-2.3 6.6-1.55 1.44-3.8 2.16-6.76 2.16-1.56 0-3.04-.19-4.44-.57a9.7 9.7 0 0 1-3.48-1.65l1.86-3.36c.68.56 1.54 1 2.58 1.32 1.04.34 2.08.51 3.12.51 1.62 0 2.81-.37 3.57-1.11.78-.72 1.17-1.82 1.17-3.3v-.69c-1.22 1.34-2.92 2.01-5.1 2.01a8.76 8.76 0 0 1-4.08-.96 7.57 7.57 0 0 1-3.99-6.84c0-1.54.36-2.9 1.08-4.08a7.35 7.35 0 0 1 2.91-2.73 8.55 8.55 0 0 1 4.08-.99c2.34 0 4.12.77 5.34 2.31v-2.07h4.44zm-8.85 11.52a4.3 4.3 0 0 0 3.03-1.08c.8-.74 1.2-1.7 1.2-2.88s-.4-2.13-1.2-2.85a4.22 4.22 0 0 0-3.03-1.11c-1.24 0-2.26.37-3.06 1.11-.8.72-1.2 1.67-1.2 2.85 0 1.18.4 2.14 1.2 2.88a4.4 4.4 0 0 0 3.06 1.08zm20.89 4.86c-1.7 0-3.23-.35-4.6-1.05a8.05 8.05 0 0 1-4.28-7.26 7.84 7.84 0 0 1 4.29-7.23 9.66 9.66 0 0 1 4.59-1.08c1.7 0 3.22.36 4.56 1.08a7.84 7.84 0 0 1 4.29 7.23 8.05 8.05 0 0 1-4.29 7.26 9.7 9.7 0 0 1-4.56 1.05zm0-3.84c1.2 0 2.18-.4 2.94-1.2a4.55 4.55 0 0 0 1.17-3.27c0-1.36-.4-2.44-1.17-3.24a3.83 3.83 0 0 0-2.94-1.23c-1.2 0-2.2.41-2.97 1.23a4.44 4.44 0 0 0-1.17 3.24c0 1.36.39 2.45 1.17 3.27.78.8 1.77 1.2 2.97 1.2zm28.24-12.54V125h-4.44v-1.92a6.37 6.37 0 0 1-5.01 2.16c-2.12 0-3.8-.61-5.04-1.83-1.24-1.22-1.86-3.03-1.86-5.43v-9.12h4.68v8.43c0 2.6 1.09 3.9 3.27 3.9 1.12 0 2.02-.36 2.7-1.08.68-.74 1.02-1.83 1.02-3.27v-7.98h4.68zm14.74 15.36a5 5 0 0 1-1.7.78c-.67.16-1.37.24-2.1.24-1.93 0-3.42-.49-4.48-1.47-1.04-.98-1.56-2.42-1.56-4.32v-6.63h-2.49v-3.6h2.5v-3.93h4.67v3.93h4.02v3.6h-4.02v6.57c0 .68.17 1.21.51 1.59.36.36.86.54 1.5.54a3 3 0 0 0 1.9-.6l1.25 3.3z"/>
  </g>
  <defs>
    <linearGradient id="banner_gradient1" x1="303.88" x2="88.41" y1="167.32" y2="33.35" gradientUnits="userSpaceOnUse">
      <stop stop-color="#9423FC"/>
      <stop offset=".51" stop-color="#FF70A5"/>
      <stop offset="1" stop-color="#FEAF6D"/>
    </linearGradient>
    <linearGradient id="banner_gradient2" x1="303.88" x2="88.41" y1="173.98" y2="40" gradientUnits="userSpaceOnUse">
      <stop stop-color="#9423FC"/>
      <stop offset=".51" stop-color="#FF70A5"/>
      <stop offset="1" stop-color="#FEAF6D"/>
    </linearGradient>
    <linearGradient id="banner_gradient3" x1="252.23" x2="65.82" y1="144.65" y2="24.58" gradientUnits="userSpaceOnUse">
      <stop stop-color="#9423FC"/>
      <stop offset=".51" stop-color="#FF70A5"/>
      <stop offset="1" stop-color="#FEAF6D"/>
    </linearGradient>
    <linearGradient id="banner_gradient4" x1="324.84" x2="259.24" y1="254.39" y2="33.33" gradientUnits="userSpaceOnUse">
      <stop stop-color="#9423FC"/>
      <stop offset=".51" stop-color="#FF70A5"/>
      <stop offset="1" stop-color="#FEAF6D"/>
    </linearGradient>
    <linearGradient id="banner_gradient5" x1="295.23" x2="229.63" y1="258.19" y2="37.13" gradientUnits="userSpaceOnUse">
      <stop stop-color="#9423FC"/>
      <stop offset=".51" stop-color="#FF70A5"/>
      <stop offset="1" stop-color="#FEAF6D"/>
    </linearGradient>
    <linearGradient id="banner_gradient6" x1="62.13" x2="157.26" y1="-27.81" y2="237.41" gradientUnits="userSpaceOnUse">
      <stop stop-color="#345EFE"/>
      <stop offset=".51" stop-color="#03B8FF"/>
      <stop offset="1" stop-color="#00FCFF"/>
    </linearGradient>
    <linearGradient id="banner_gradient7" x1="95.1" x2="189.46" y1="-12.5" y2="227.61" gradientUnits="userSpaceOnUse">
      <stop stop-color="#345EFE"/>
      <stop offset=".51" stop-color="#03B8FF"/>
      <stop offset="1" stop-color="#00FCFF"/>
    </linearGradient>
    <linearGradient id="banner_gradient8" x1="62.13" x2="157.26" y1="-30.98" y2="234.24" gradientUnits="userSpaceOnUse">
      <stop stop-color="#345EFE"/>
      <stop offset=".51" stop-color="#03B8FF"/>
      <stop offset="1" stop-color="#00FCFF"/>
    </linearGradient>
    <linearGradient id="banner_gradient9" x1="169.66" x2="211.83" y1="2.73" y2="102.88" gradientUnits="userSpaceOnUse">
      <stop stop-color="#345EFE"/>
      <stop offset=".51" stop-color="#03B8FF"/>
      <stop offset="1" stop-color="#00FCFF"/>
    </linearGradient>
  </defs>
</svg>