<svg width="100%" height="230" viewBox="0 0 316 230" fill="none" xmlns="http://www.w3.org/2000/svg">
        <mask id="mask0" mask-type="alpha" maskUnits="userSpaceOnUse" x="0" y="0" width="317" height="230">
        <path d="M316 0H0.000112532L0 167C0 167 17 151 57 198C97 245 148 233 199 205C250 177 316 205 316 205V0Z" fill="#C4C4C4"/>
        </mask>
        <g mask="url(#mask0)">
        <path d="M371.3 -80.1901H0V205.12H371.3V-80.1901Z" fill="#121240"/>
        <path opacity="0.64" d="M-79.4786 114.684C-79.4786 114.684 -27.2194 80.0218 20.4288 90.6327C68.077 101.244 77.2992 157.127 115.725 167.738C154.151 178.349 211.021 137.321 246.373 130.247C281.725 123.173 298.633 126.71 341.67 149.346C384.707 171.983 357.04 239.892 357.04 239.892C357.04 239.892 202.568 261.821 184.892 260.407C167.216 258.993 4.29 239.892 4.29 239.892L-89.4692 216.548L-79.4786 114.684Z" fill="url(#paint0_linear)"/>
        <path opacity="0.18" d="M-79.4786 121.34C-79.4786 121.34 -27.2194 86.6776 20.4288 97.2885C68.077 107.899 77.2992 163.783 115.725 174.394C154.151 185.005 211.021 143.976 246.373 136.902C281.725 129.829 298.633 133.366 341.67 156.002C384.707 178.638 357.04 246.548 357.04 246.548C357.04 246.548 202.568 268.477 184.892 267.062C167.216 265.648 4.29 246.548 4.29 246.548L-89.4692 223.204L-79.4786 121.34Z" fill="url(#paint1_linear)"/>
        <path opacity="0.18" d="M-117.01 102.323C-117.01 102.323 -64.7511 67.6612 -17.1029 78.272C30.5453 88.8829 39.7675 144.767 78.1935 155.378C116.62 165.989 173.49 124.96 208.842 117.886C244.194 110.812 261.101 114.349 304.138 136.986C347.175 159.622 319.508 227.532 319.508 227.532C319.508 227.532 165.036 249.46 147.36 248.046C129.684 246.632 -33.2417 227.532 -33.2417 227.532L-127.001 204.188L-117.01 102.323Z" fill="url(#paint2_linear)"/>
        <path opacity="0.91" d="M-76.7242 131.799C-76.7242 131.799 -24.465 97.1364 23.1832 107.747C70.8314 118.358 80.0536 174.242 118.48 184.853C156.906 195.464 213.776 154.435 249.128 147.361C284.48 140.287 301.387 143.824 344.424 166.461C387.461 189.097 359.794 257.007 359.794 257.007C359.794 257.007 205.322 278.936 187.646 277.521C169.97 276.107 7.0444 257.007 7.0444 257.007L-86.7148 233.663L-76.7242 131.799Z" fill="url(#paint3_linear)"/>
        <path d="M-106.336 135.602C-106.336 135.602 -54.0768 100.94 -6.42859 111.551C41.2196 122.161 50.4418 178.045 88.8679 188.656C127.294 199.267 184.164 158.238 219.516 151.165C254.868 144.091 271.775 147.628 314.812 170.264C357.849 192.901 330.183 260.81 330.183 260.81C330.183 260.81 175.71 282.739 158.034 281.325C140.359 279.91 -22.5674 260.81 -22.5674 260.81L-116.327 237.466L-106.336 135.602Z" fill="url(#paint4_linear)"/>
        <path d="M461.442 131.961C461.442 131.961 393.785 155.576 345.439 131.304C297.093 107.032 304.748 43.9272 266.409 22.1248C228.07 0.322298 153.396 29.6111 112.803 27.8201C72.2089 26.0291 54.982 17.6642 15.4399 -18.4213C-24.1022 -54.5069 27.3798 -120.782 27.3798 -120.782C27.3798 -120.782 201.917 -103.212 220.649 -96.9438C239.381 -90.6755 410.124 -26.3247 410.124 -26.3247L504.477 24.1103L461.442 131.961Z" fill="url(#paint5_linear)"/>
        <path d="M461.442 125.939C461.442 125.939 393.785 149.555 345.439 125.283C297.093 101.011 304.748 37.9054 266.409 16.103C228.07 -5.69948 153.396 23.5893 112.803 21.7983C72.2089 20.0073 54.982 11.6424 15.4399 -24.4431C-24.1022 -60.5286 27.3798 -126.804 27.3798 -126.804C27.3798 -126.804 201.917 -109.234 220.649 -102.966C239.381 -96.6973 410.124 -32.3465 410.124 -32.3465L504.477 18.0886L461.442 125.939Z" fill="url(#paint6_linear)"/>
        <path opacity="0.68" d="M461.442 128.791C461.442 128.791 393.785 152.407 345.439 128.135C297.093 103.863 304.748 40.758 266.409 18.9555C228.07 -2.84699 153.396 26.4418 112.803 24.6508C72.209 22.8598 54.9821 14.4949 15.4399 -21.5906C-24.1022 -57.6762 27.3799 -123.951 27.3799 -123.951C27.3799 -123.951 201.917 -106.381 220.649 -100.113C239.381 -93.8448 410.124 -29.494 410.124 -29.494L504.477 20.9411L461.442 128.791Z" fill="url(#paint7_linear)"/>
        <path opacity="0.39" d="M324.873 58.3112C324.873 58.3112 293.316 69.3259 270.767 58.0052C248.218 46.6844 251.789 17.2513 233.907 7.08237C216.025 -3.08659 181.196 10.574 162.263 9.73889C143.33 8.90376 135.295 5.00206 116.852 -11.8287C98.4093 -28.6595 122.421 -59.5711 122.421 -59.5711C122.421 -59.5711 203.827 -51.3763 212.564 -48.4526C221.301 -45.5289 300.937 -15.5151 300.937 -15.5151L344.945 8.00842L324.873 58.3112Z" fill="url(#paint8_linear)"/>
        <g opacity="0.5">
        <path d="M104.652 34.4431C108.836 34.4431 112.227 31.3213 112.227 27.4704C112.227 23.6196 108.836 20.4978 104.652 20.4978C100.468 20.4978 97.0767 23.6196 97.0767 27.4704C97.0767 31.3213 100.468 34.4431 104.652 34.4431Z" fill="#EEF2F5"/>
        <path d="M29.3544 113.66C37.5316 113.66 44.1605 107.558 44.1605 100.031C44.1605 92.5046 37.5316 86.403 29.3544 86.403C21.1773 86.403 14.5483 92.5046 14.5483 100.031C14.5483 107.558 21.1773 113.66 29.3544 113.66Z" fill="#EEF2F5"/>
        <path d="M293.688 74.6945C299.393 74.6945 304.018 70.4375 304.018 65.1863C304.018 59.935 299.393 55.678 293.688 55.678C287.983 55.678 283.358 59.935 283.358 65.1863C283.358 70.4375 287.983 74.6945 293.688 74.6945Z" fill="#EEF2F5"/>
        <path d="M213.116 143.787C218.821 143.787 223.445 139.53 223.445 134.279C223.445 129.028 218.821 124.771 213.116 124.771C207.41 124.771 202.786 129.028 202.786 134.279C202.786 139.53 207.41 143.787 213.116 143.787Z" fill="#EEF2F5"/>
        <path d="M24.0794 62.6509C25.6008 62.6509 26.8341 61.5157 26.8341 60.1154C26.8341 58.715 25.6008 57.5798 24.0794 57.5798C22.558 57.5798 21.3247 58.715 21.3247 60.1154C21.3247 61.5157 22.558 62.6509 24.0794 62.6509Z" fill="#EEF2F5"/>
        <path d="M236.53 36.9788C238.051 36.9788 239.284 35.8436 239.284 34.4432C239.284 33.0429 238.051 31.9077 236.53 31.9077C235.008 31.9077 233.775 33.0429 233.775 34.4432C233.775 35.8436 235.008 36.9788 236.53 36.9788Z" fill="#EEF2F5"/>
        <path d="M287.834 110.509C289.356 110.509 290.589 109.373 290.589 107.973C290.589 106.573 289.356 105.438 287.834 105.438C286.313 105.438 285.08 106.573 285.08 107.973C285.08 109.373 286.313 110.509 287.834 110.509Z" fill="#EEF2F5"/>
        <path d="M293.515 137.847C295.656 136.71 296.39 134.19 295.154 132.219C293.918 130.248 291.18 129.573 289.039 130.711C286.898 131.849 286.165 134.369 287.401 136.339C288.637 138.31 291.374 138.985 293.515 137.847Z" fill="#EEF2F5"/>
        <path d="M180.576 66.8528C182.717 65.715 183.45 63.1951 182.214 61.2245C180.978 59.2538 178.241 58.5786 176.1 59.7164C173.959 60.8542 173.225 63.374 174.461 65.3447C175.697 67.3153 178.435 67.9905 180.576 66.8528Z" fill="#EEF2F5"/>
        <path d="M106.03 113.678C107.741 113.678 109.129 112.401 109.129 110.825C109.129 109.25 107.741 107.973 106.03 107.973C104.318 107.973 102.931 109.25 102.931 110.825C102.931 112.401 104.318 113.678 106.03 113.678Z" fill="#EEF2F5"/>
        </g>
        <path d="M29.84 33.96H23.12V30H41.42V33.96H34.7V51H29.84V33.96ZM53.5149 34.62C55.5149 34.62 57.1249 35.22 58.3449 36.42C59.5849 37.62 60.2049 39.4 60.2049 41.76V51H55.5249V42.48C55.5249 41.2 55.2449 40.25 54.6849 39.63C54.1249 38.99 53.3149 38.67 52.2549 38.67C51.0749 38.67 50.1349 39.04 49.4349 39.78C48.7349 40.5 48.3849 41.58 48.3849 43.02V51H43.7049V28.74H48.3849V36.54C49.0049 35.92 49.7549 35.45 50.6349 35.13C51.5149 34.79 52.4749 34.62 53.5149 34.62ZM80.4329 42.99C80.4329 43.05 80.4029 43.47 80.3429 44.25H68.1329C68.3529 45.25 68.8729 46.04 69.6929 46.62C70.5129 47.2 71.5329 47.49 72.7529 47.49C73.5929 47.49 74.3329 47.37 74.9729 47.13C75.6329 46.87 76.2429 46.47 76.8029 45.93L79.2929 48.63C77.7729 50.37 75.5529 51.24 72.6329 51.24C70.8129 51.24 69.2029 50.89 67.8029 50.19C66.4029 49.47 65.3229 48.48 64.5629 47.22C63.8029 45.96 63.4229 44.53 63.4229 42.93C63.4229 41.35 63.7929 39.93 64.5329 38.67C65.2929 37.39 66.3229 36.4 67.6229 35.7C68.9429 34.98 70.4129 34.62 72.0329 34.62C73.6129 34.62 75.0429 34.96 76.3229 35.64C77.6029 36.32 78.6029 37.3 79.3229 38.58C80.0629 39.84 80.4329 41.31 80.4329 42.99ZM72.0629 38.16C71.0029 38.16 70.1129 38.46 69.3929 39.06C68.6729 39.66 68.2329 40.48 68.0729 41.52H76.0229C75.8629 40.5 75.4229 39.69 74.7029 39.09C73.9829 38.47 73.1029 38.16 72.0629 38.16ZM34.58 67C36.44 67 38.05 67.31 39.41 67.93C40.79 68.55 41.85 69.43 42.59 70.57C43.33 71.71 43.7 73.06 43.7 74.62C43.7 76.16 43.33 77.51 42.59 78.67C41.85 79.81 40.79 80.69 39.41 81.31C38.05 81.91 36.44 82.21 34.58 82.21H30.35V88H25.49V67H34.58ZM34.31 78.25C35.77 78.25 36.88 77.94 37.64 77.32C38.4 76.68 38.78 75.78 38.78 74.62C38.78 73.44 38.4 72.54 37.64 71.92C36.88 71.28 35.77 70.96 34.31 70.96H30.35V78.25H34.31ZM51.3097 73.99C51.8697 73.21 52.6197 72.62 53.5597 72.22C54.5197 71.82 55.6197 71.62 56.8597 71.62V75.94C56.3397 75.9 55.9897 75.88 55.8097 75.88C54.4697 75.88 53.4197 76.26 52.6597 77.02C51.8997 77.76 51.5197 78.88 51.5197 80.38V88H46.8397V71.86H51.3097V73.99ZM67.1759 88.24C65.4759 88.24 63.9459 87.89 62.5859 87.19C61.2459 86.47 60.1959 85.48 59.4359 84.22C58.6759 82.96 58.2959 81.53 58.2959 79.93C58.2959 78.33 58.6759 76.9 59.4359 75.64C60.1959 74.38 61.2459 73.4 62.5859 72.7C63.9459 71.98 65.4759 71.62 67.1759 71.62C68.8759 71.62 70.3959 71.98 71.7359 72.7C73.0759 73.4 74.1259 74.38 74.8859 75.64C75.6459 76.9 76.0259 78.33 76.0259 79.93C76.0259 81.53 75.6459 82.96 74.8859 84.22C74.1259 85.48 73.0759 86.47 71.7359 87.19C70.3959 87.89 68.8759 88.24 67.1759 88.24ZM67.1759 84.4C68.3759 84.4 69.3559 84 70.1159 83.2C70.8959 82.38 71.2859 81.29 71.2859 79.93C71.2859 78.57 70.8959 77.49 70.1159 76.69C69.3559 75.87 68.3759 75.46 67.1759 75.46C65.9759 75.46 64.9859 75.87 64.2059 76.69C63.4259 77.49 63.0359 78.57 63.0359 79.93C63.0359 81.29 63.4259 82.38 64.2059 83.2C64.9859 84 65.9759 84.4 67.1759 84.4ZM95.8041 71.86V85.3C95.8041 88.26 95.0341 90.46 93.4941 91.9C91.9541 93.34 89.7041 94.06 86.7441 94.06C85.1841 94.06 83.7041 93.87 82.3041 93.49C80.9041 93.11 79.7441 92.56 78.8241 91.84L80.6841 88.48C81.3641 89.04 82.2241 89.48 83.2641 89.8C84.3041 90.14 85.3441 90.31 86.3841 90.31C88.0041 90.31 89.1941 89.94 89.9541 89.2C90.7341 88.48 91.1241 87.38 91.1241 85.9V85.21C89.9041 86.55 88.2041 87.22 86.0241 87.22C84.5441 87.22 83.1841 86.9 81.9441 86.26C80.7241 85.6 79.7541 84.68 79.0341 83.5C78.3141 82.32 77.9541 80.96 77.9541 79.42C77.9541 77.88 78.3141 76.52 79.0341 75.34C79.7541 74.16 80.7241 73.25 81.9441 72.61C83.1841 71.95 84.5441 71.62 86.0241 71.62C88.3641 71.62 90.1441 72.39 91.3641 73.93V71.86H95.8041ZM86.9541 83.38C88.1941 83.38 89.2041 83.02 89.9841 82.3C90.7841 81.56 91.1841 80.6 91.1841 79.42C91.1841 78.24 90.7841 77.29 89.9841 76.57C89.2041 75.83 88.1941 75.46 86.9541 75.46C85.7141 75.46 84.6941 75.83 83.8941 76.57C83.0941 77.29 82.6941 78.24 82.6941 79.42C82.6941 80.6 83.0941 81.56 83.8941 82.3C84.6941 83.02 85.7141 83.38 86.9541 83.38ZM104.63 73.99C105.19 73.21 105.94 72.62 106.88 72.22C107.84 71.82 108.94 71.62 110.18 71.62V75.94C109.66 75.9 109.31 75.88 109.13 75.88C107.79 75.88 106.74 76.26 105.98 77.02C105.22 77.76 104.84 78.88 104.84 80.38V88H100.16V71.86H104.63V73.99ZM119.385 71.62C121.885 71.62 123.805 72.22 125.145 73.42C126.485 74.6 127.155 76.39 127.155 78.79V88H122.775V85.99C121.895 87.49 120.255 88.24 117.855 88.24C116.615 88.24 115.535 88.03 114.615 87.61C113.715 87.19 113.025 86.61 112.545 85.87C112.065 85.13 111.825 84.29 111.825 83.35C111.825 81.85 112.385 80.67 113.505 79.81C114.645 78.95 116.395 78.52 118.755 78.52H122.475C122.475 77.5 122.165 76.72 121.545 76.18C120.925 75.62 119.995 75.34 118.755 75.34C117.895 75.34 117.045 75.48 116.205 75.76C115.385 76.02 114.685 76.38 114.105 76.84L112.425 73.57C113.305 72.95 114.355 72.47 115.575 72.13C116.815 71.79 118.085 71.62 119.385 71.62ZM119.025 85.09C119.825 85.09 120.535 84.91 121.155 84.55C121.775 84.17 122.215 83.62 122.475 82.9V81.25H119.265C117.345 81.25 116.385 81.88 116.385 83.14C116.385 83.74 116.615 84.22 117.075 84.58C117.555 84.92 118.205 85.09 119.025 85.09ZM152.06 71.62C154.08 71.62 155.68 72.22 156.86 73.42C158.06 74.6 158.66 76.38 158.66 78.76V88H153.98V79.48C153.98 78.2 153.71 77.25 153.17 76.63C152.65 75.99 151.9 75.67 150.92 75.67C149.82 75.67 148.95 76.03 148.31 76.75C147.67 77.45 147.35 78.5 147.35 79.9V88H142.67V79.48C142.67 76.94 141.65 75.67 139.61 75.67C138.53 75.67 137.67 76.03 137.03 76.75C136.39 77.45 136.07 78.5 136.07 79.9V88H131.39V71.86H135.86V73.72C136.46 73.04 137.19 72.52 138.05 72.16C138.93 71.8 139.89 71.62 140.93 71.62C142.07 71.62 143.1 71.85 144.02 72.31C144.94 72.75 145.68 73.4 146.24 74.26C146.9 73.42 147.73 72.77 148.73 72.31C149.75 71.85 150.86 71.62 152.06 71.62ZM183.525 71.62C185.545 71.62 187.145 72.22 188.325 73.42C189.525 74.6 190.125 76.38 190.125 78.76V88H185.445V79.48C185.445 78.2 185.175 77.25 184.635 76.63C184.115 75.99 183.365 75.67 182.385 75.67C181.285 75.67 180.415 76.03 179.775 76.75C179.135 77.45 178.815 78.5 178.815 79.9V88H174.135V79.48C174.135 76.94 173.115 75.67 171.075 75.67C169.995 75.67 169.135 76.03 168.495 76.75C167.855 77.45 167.535 78.5 167.535 79.9V88H162.855V71.86H167.325V73.72C167.925 73.04 168.655 72.52 169.515 72.16C170.395 71.8 171.355 71.62 172.395 71.62C173.535 71.62 174.565 71.85 175.485 72.31C176.405 72.75 177.145 73.4 177.705 74.26C178.365 73.42 179.195 72.77 180.195 72.31C181.215 71.85 182.325 71.62 183.525 71.62ZM210.306 79.99C210.306 80.05 210.276 80.47 210.216 81.25H198.006C198.226 82.25 198.746 83.04 199.566 83.62C200.386 84.2 201.406 84.49 202.626 84.49C203.466 84.49 204.206 84.37 204.846 84.13C205.506 83.87 206.116 83.47 206.676 82.93L209.166 85.63C207.646 87.37 205.426 88.24 202.506 88.24C200.686 88.24 199.076 87.89 197.676 87.19C196.276 86.47 195.196 85.48 194.436 84.22C193.676 82.96 193.296 81.53 193.296 79.93C193.296 78.35 193.666 76.93 194.406 75.67C195.166 74.39 196.196 73.4 197.496 72.7C198.816 71.98 200.286 71.62 201.906 71.62C203.486 71.62 204.916 71.96 206.196 72.64C207.476 73.32 208.476 74.3 209.196 75.58C209.936 76.84 210.306 78.31 210.306 79.99ZM201.936 75.16C200.876 75.16 199.986 75.46 199.266 76.06C198.546 76.66 198.106 77.48 197.946 78.52H205.896C205.736 77.5 205.296 76.69 204.576 76.09C203.856 75.47 202.976 75.16 201.936 75.16ZM217.892 73.99C218.452 73.21 219.202 72.62 220.142 72.22C221.102 71.82 222.202 71.62 223.442 71.62V75.94C222.922 75.9 222.572 75.88 222.392 75.88C221.052 75.88 220.002 76.26 219.242 77.02C218.482 77.76 218.102 78.88 218.102 80.38V88H213.422V71.86H217.892V73.99ZM229.226 65.5C230.066 65.5 230.756 65.77 231.296 66.31C231.836 66.83 232.106 67.52 232.106 68.38C232.106 68.78 232.056 69.18 231.956 69.58C231.856 69.98 231.646 70.58 231.326 71.38L229.586 75.7H226.616L227.906 70.96C227.406 70.74 227.016 70.41 226.736 69.97C226.456 69.53 226.316 69 226.316 68.38C226.316 67.52 226.586 66.83 227.126 66.31C227.686 65.77 228.386 65.5 229.226 65.5ZM240.18 88.24C238.84 88.24 237.53 88.08 236.25 87.76C234.97 87.42 233.95 87 233.19 86.5L234.75 83.14C235.47 83.6 236.34 83.98 237.36 84.28C238.38 84.56 239.38 84.7 240.36 84.7C242.34 84.7 243.33 84.21 243.33 83.23C243.33 82.77 243.06 82.44 242.52 82.24C241.98 82.04 241.15 81.87 240.03 81.73C238.71 81.53 237.62 81.3 236.76 81.04C235.9 80.78 235.15 80.32 234.51 79.66C233.89 79 233.58 78.06 233.58 76.84C233.58 75.82 233.87 74.92 234.45 74.14C235.05 73.34 235.91 72.72 237.03 72.28C238.17 71.84 239.51 71.62 241.05 71.62C242.19 71.62 243.32 71.75 244.44 72.01C245.58 72.25 246.52 72.59 247.26 73.03L245.7 76.36C244.28 75.56 242.73 75.16 241.05 75.16C240.05 75.16 239.3 75.3 238.8 75.58C238.3 75.86 238.05 76.22 238.05 76.66C238.05 77.16 238.32 77.51 238.86 77.71C239.4 77.91 240.26 78.1 241.44 78.28C242.76 78.5 243.84 78.74 244.68 79C245.52 79.24 246.25 79.69 246.87 80.35C247.49 81.01 247.8 81.93 247.8 83.11C247.8 84.11 247.5 85 246.9 85.78C246.3 86.56 245.42 87.17 244.26 87.61C243.12 88.03 241.76 88.24 240.18 88.24ZM44.75 104V125H39.89V116.39H30.35V125H25.49V104H30.35V112.28H39.89V104H44.75ZM55.8985 108.62C58.3985 108.62 60.3185 109.22 61.6585 110.42C62.9985 111.6 63.6685 113.39 63.6685 115.79V125H59.2885V122.99C58.4085 124.49 56.7685 125.24 54.3685 125.24C53.1285 125.24 52.0485 125.03 51.1285 124.61C50.2285 124.19 49.5385 123.61 49.0585 122.87C48.5785 122.13 48.3385 121.29 48.3385 120.35C48.3385 118.85 48.8985 117.67 50.0185 116.81C51.1585 115.95 52.9085 115.52 55.2685 115.52H58.9885C58.9885 114.5 58.6785 113.72 58.0585 113.18C57.4385 112.62 56.5085 112.34 55.2685 112.34C54.4085 112.34 53.5585 112.48 52.7185 112.76C51.8985 113.02 51.1985 113.38 50.6185 113.84L48.9385 110.57C49.8185 109.95 50.8685 109.47 52.0885 109.13C53.3285 108.79 54.5985 108.62 55.8985 108.62ZM55.5385 122.09C56.3385 122.09 57.0485 121.91 57.6685 121.55C58.2885 121.17 58.7285 120.62 58.9885 119.9V118.25H55.7785C53.8585 118.25 52.8985 118.88 52.8985 120.14C52.8985 120.74 53.1285 121.22 53.5885 121.58C54.0685 121.92 54.7185 122.09 55.5385 122.09ZM77.7141 108.62C79.7141 108.62 81.3241 109.22 82.5441 110.42C83.7841 111.62 84.4041 113.4 84.4041 115.76V125H79.7241V116.48C79.7241 115.2 79.4441 114.25 78.8841 113.63C78.3241 112.99 77.5141 112.67 76.4541 112.67C75.2741 112.67 74.3341 113.04 73.6341 113.78C72.9341 114.5 72.5841 115.58 72.5841 117.02V125H67.9041V108.86H72.3741V110.75C72.9941 110.07 73.7641 109.55 74.6841 109.19C75.6041 108.81 76.6141 108.62 77.7141 108.62ZM105.472 108.86V122.3C105.472 125.26 104.702 127.46 103.162 128.9C101.622 130.34 99.3721 131.06 96.4121 131.06C94.8521 131.06 93.3721 130.87 91.9721 130.49C90.5721 130.11 89.4121 129.56 88.4921 128.84L90.3521 125.48C91.0321 126.04 91.8921 126.48 92.9321 126.8C93.9721 127.14 95.0121 127.31 96.0521 127.31C97.6721 127.31 98.8621 126.94 99.6221 126.2C100.402 125.48 100.792 124.38 100.792 122.9V122.21C99.5721 123.55 97.8721 124.22 95.6921 124.22C94.2121 124.22 92.8521 123.9 91.6121 123.26C90.3921 122.6 89.4221 121.68 88.7021 120.5C87.9821 119.32 87.6221 117.96 87.6221 116.42C87.6221 114.88 87.9821 113.52 88.7021 112.34C89.4221 111.16 90.3921 110.25 91.6121 109.61C92.8521 108.95 94.2121 108.62 95.6921 108.62C98.0321 108.62 99.8121 109.39 101.032 110.93V108.86H105.472ZM96.6221 120.38C97.8621 120.38 98.8721 120.02 99.6521 119.3C100.452 118.56 100.852 117.6 100.852 116.42C100.852 115.24 100.452 114.29 99.6521 113.57C98.8721 112.83 97.8621 112.46 96.6221 112.46C95.3821 112.46 94.3621 112.83 93.5621 113.57C92.7621 114.29 92.3621 115.24 92.3621 116.42C92.3621 117.6 92.7621 118.56 93.5621 119.3C94.3621 120.02 95.3821 120.38 96.6221 120.38ZM117.508 125.24C115.808 125.24 114.278 124.89 112.918 124.19C111.578 123.47 110.528 122.48 109.768 121.22C109.008 119.96 108.628 118.53 108.628 116.93C108.628 115.33 109.008 113.9 109.768 112.64C110.528 111.38 111.578 110.4 112.918 109.7C114.278 108.98 115.808 108.62 117.508 108.62C119.208 108.62 120.728 108.98 122.068 109.7C123.408 110.4 124.458 111.38 125.218 112.64C125.978 113.9 126.358 115.33 126.358 116.93C126.358 118.53 125.978 119.96 125.218 121.22C124.458 122.48 123.408 123.47 122.068 124.19C120.728 124.89 119.208 125.24 117.508 125.24ZM117.508 121.4C118.708 121.4 119.688 121 120.448 120.2C121.228 119.38 121.618 118.29 121.618 116.93C121.618 115.57 121.228 114.49 120.448 113.69C119.688 112.87 118.708 112.46 117.508 112.46C116.308 112.46 115.318 112.87 114.538 113.69C113.758 114.49 113.368 115.57 113.368 116.93C113.368 118.29 113.758 119.38 114.538 120.2C115.318 121 116.308 121.4 117.508 121.4ZM145.746 108.86V125H141.306V123.08C140.686 123.78 139.946 124.32 139.086 124.7C138.226 125.06 137.296 125.24 136.296 125.24C134.176 125.24 132.496 124.63 131.256 123.41C130.016 122.19 129.396 120.38 129.396 117.98V108.86H134.076V117.29C134.076 119.89 135.166 121.19 137.346 121.19C138.466 121.19 139.366 120.83 140.046 120.11C140.726 119.37 141.066 118.28 141.066 116.84V108.86H145.746ZM160.492 124.22C160.032 124.56 159.462 124.82 158.782 125C158.122 125.16 157.422 125.24 156.682 125.24C154.762 125.24 153.272 124.75 152.212 123.77C151.172 122.79 150.652 121.35 150.652 119.45V112.82H148.162V109.22H150.652V105.29H155.332V109.22H159.352V112.82H155.332V119.39C155.332 120.07 155.502 120.6 155.842 120.98C156.202 121.34 156.702 121.52 157.342 121.52C158.082 121.52 158.712 121.32 159.232 120.92L160.492 124.22Z" fill="white"/>
        </g>
        <defs>
        <linearGradient id="paint0_linear" x1="303.878" y1="167.325" x2="88.4108" y2="33.3464" gradientUnits="userSpaceOnUse">
        <stop stop-color="#9423FC"/>
        <stop offset="0.51" stop-color="#FF70A5"/>
        <stop offset="1" stop-color="#FEAF6D"/>
        </linearGradient>
        <linearGradient id="paint1_linear" x1="303.878" y1="173.981" x2="88.4108" y2="40.0021" gradientUnits="userSpaceOnUse">
        <stop stop-color="#9423FC"/>
        <stop offset="0.51" stop-color="#FF70A5"/>
        <stop offset="1" stop-color="#FEAF6D"/>
        </linearGradient>
        <linearGradient id="paint2_linear" x1="252.233" y1="144.653" x2="65.8192" y2="24.5828" gradientUnits="userSpaceOnUse">
        <stop stop-color="#9423FC"/>
        <stop offset="0.51" stop-color="#FF70A5"/>
        <stop offset="1" stop-color="#FEAF6D"/>
        </linearGradient>
        <linearGradient id="paint3_linear" x1="324.843" y1="254.386" x2="259.242" y2="33.3257" gradientUnits="userSpaceOnUse">
        <stop stop-color="#9423FC"/>
        <stop offset="0.51" stop-color="#FF70A5"/>
        <stop offset="1" stop-color="#FEAF6D"/>
        </linearGradient>
        <linearGradient id="paint4_linear" x1="295.231" y1="258.189" x2="229.63" y2="37.129" gradientUnits="userSpaceOnUse">
        <stop stop-color="#9423FC"/>
        <stop offset="0.51" stop-color="#FF70A5"/>
        <stop offset="1" stop-color="#FEAF6D"/>
        </linearGradient>
        <linearGradient id="paint5_linear" x1="62.1268" y1="-27.8089" x2="157.258" y2="237.412" gradientUnits="userSpaceOnUse">
        <stop stop-color="#345EFE"/>
        <stop offset="0.51" stop-color="#03B8FF"/>
        <stop offset="1" stop-color="#00FCFF"/>
        </linearGradient>
        <linearGradient id="paint6_linear" x1="95.096" y1="-12.5024" x2="189.456" y2="227.607" gradientUnits="userSpaceOnUse">
        <stop stop-color="#345EFE"/>
        <stop offset="0.51" stop-color="#03B8FF"/>
        <stop offset="1" stop-color="#00FCFF"/>
        </linearGradient>
        <linearGradient id="paint7_linear" x1="62.1269" y1="-30.9782" x2="157.259" y2="234.242" gradientUnits="userSpaceOnUse">
        <stop stop-color="#345EFE"/>
        <stop offset="0.51" stop-color="#03B8FF"/>
        <stop offset="1" stop-color="#00FCFF"/>
        </linearGradient>
        <linearGradient id="paint8_linear" x1="169.661" y1="2.73164" x2="211.826" y2="102.878" gradientUnits="userSpaceOnUse">
        <stop stop-color="#345EFE"/>
        <stop offset="0.51" stop-color="#03B8FF"/>
        <stop offset="1" stop-color="#00FCFF"/>
        </linearGradient>
        </defs>
      </svg>