<svg width="100" height="100" viewBox="0 0 100 100" fill="none" xmlns="http://www.w3.org/2000/svg">
<path d="M90 0H10C4.47715 0 0 4.47716 0 10V90C0 95.5229 4.47716 100 10 100H90C95.5229 100 100 95.5229 100 90V10C100 4.47715 95.5229 0 90 0Z" fill="white"/>
<path d="M0 10C0 4.47716 4.47715 0 10 0H90C95.5229 0 100 4.47715 100 10V90C100 95.5229 95.5229 100 90 100H10C4.47716 100 0 95.5229 0 90V10Z" fill="#141414"/>
<path d="M29.8211 24.7757C29.8211 24.7757 29.8212 24.7757 29.8212 24.7757C35.8979 24.8008 41.9712 24.9551 48.0476 24.8977C52.5208 24.8547 56.9509 27.0034 59.6664 30.5582C61.9407 33.4208 62.9809 37.1514 62.7657 40.7816C62.963 47.1703 58.4611 53.3546 52.284 55.0621C50.4474 55.6289 48.5175 55.6468 46.6127 55.7114C45.3751 55.7186 44.2739 56.7086 44.1806 57.9462C43.9906 60.8303 44.1806 63.7287 44.0873 66.6162C43.7609 70.9351 40.8015 74.9025 36.7767 76.4917C36.0291 76.8181 35.2546 77.0271 34.4655 77.1594C31.8799 77.5929 29.7562 75.2638 29.7609 72.6421C29.7654 70.1621 32.0099 69.0607 33.9649 67.5348C34.0839 67.442 34.1976 67.3361 34.305 67.2153C35.2736 66.1786 34.8651 64.6792 34.9902 63.4093C35.2449 60.5145 34.6493 57.4977 35.7076 54.714C36.5347 52.4264 36.5589 49.8122 35.7722 47.5105C35.4273 46.5016 35.215 45.4494 35.1695 44.3758C35.0978 41.75 35.0906 39.1242 34.922 36.502C34.8861 35.2931 33.8709 34.1847 32.6619 34.0735C31.0555 33.8764 29.7714 32.6531 29.7601 31.0346C29.7455 28.9464 29.7205 26.8586 29.8209 24.7758C29.8209 24.7757 29.821 24.7756 29.8211 24.7757ZM44.1231 34.6691C44.1231 34.669 44.123 34.6691 44.123 34.6692C44.245 37.5391 44.3884 40.4156 44.1947 43.2854C44.0333 44.9785 45.2457 46.6071 46.8958 46.9874C50.1063 47.8663 53.5358 45.3947 54.1706 42.2236C54.9598 38.988 52.5706 35.4654 49.3279 34.852C47.7626 34.5775 46.1679 34.69 44.4753 34.6758C44.4318 34.6757 44.2774 34.6733 44.1232 34.6691C44.1232 34.6691 44.1231 34.6691 44.1231 34.6691Z" fill="url(#paint0_linear)"/>
<path d="M66.9499 20.1C66.9499 20.1 66.9499 20.1 66.9499 20.1C69.6153 20.1 72.1716 21.1588 74.0563 23.0436C75.9411 24.9283 76.9999 27.4845 76.9999 30.15C76.9999 32.8154 75.9411 35.3717 74.0563 37.2564C72.1716 39.1411 69.6153 40.2 66.9499 40.2H60.7806C59.7514 40.2 58.7643 39.7911 58.0365 39.0633C57.3088 38.3356 56.8999 37.3485 56.8999 36.3193V30.15C56.8999 27.4845 57.9587 24.9283 59.8435 23.0436C61.7282 21.1588 64.2845 20.1 66.9499 20.1C66.9499 20.1 66.9499 20.1 66.9499 20.1Z" fill="#EEF2F5"/>
<path d="M65.2864 31.2975H60.325C59.8172 31.2975 59.4055 31.7092 59.4055 32.217V32.2171C59.4055 32.7249 59.8172 33.1366 60.325 33.1366H65.2864C65.7943 33.1366 66.2059 32.7249 66.2059 32.2171V32.217C66.2059 31.7092 65.7943 31.2975 65.2864 31.2975Z" fill="#141414"/>
<path d="M67.9822 34.6252H60.325C59.8172 34.6252 59.4055 35.0369 59.4055 35.5447V35.5448C59.4055 36.0527 59.8172 36.4644 60.325 36.4644H67.9822C68.49 36.4644 68.9017 36.0527 68.9017 35.5448V35.5447C68.9017 35.0369 68.49 34.6252 67.9822 34.6252Z" fill="#141414"/>
<defs>
<linearGradient id="paint0_linear" x1="54.7593" y1="28.0368" x2="13.5848" y2="57.7499" gradientUnits="userSpaceOnUse">
<stop stop-color="#9423FC"/>
<stop offset="0.51" stop-color="#FF70A5"/>
<stop offset="1" stop-color="#FEAF6D"/>
</linearGradient>
</defs>
</svg>
